<?xml version="1.0" encoding="UTF-8" standalone="no"?>
<svg
   xmlns:dc="http://purl.org/dc/elements/1.1/"
   xmlns:cc="http://creativecommons.org/ns#"
   xmlns:rdf="http://www.w3.org/1999/02/22-rdf-syntax-ns#"
   xmlns:svg="http://www.w3.org/2000/svg"
   xmlns="http://www.w3.org/2000/svg"
   xmlns:sodipodi="http://sodipodi.sourceforge.net/DTD/sodipodi-0.dtd"
   xmlns:inkscape="http://www.inkscape.org/namespaces/inkscape"
   sodipodi:docname="icon.svg"
   inkscape:version="1.0 (4035a4fb49, 2020-05-01)"
   id="svg8"
   version="1.1"
   viewBox="0 0 22.008724 22.023632"
   height="22.023632mm"
   width="22.008724mm">
  <defs
     id="defs2" />
  <sodipodi:namedview
     inkscape:window-maximized="1"
     inkscape:window-y="-8"
     inkscape:window-x="-8"
     inkscape:window-height="1002"
     inkscape:window-width="1920"
     showguides="false"
     showgrid="false"
     inkscape:document-rotation="0"
     inkscape:current-layer="g998"
     inkscape:document-units="mm"
     inkscape:cy="169.0369"
     inkscape:cx="4.3370692"
     inkscape:zoom="1.4"
     inkscape:pageshadow="2"
     inkscape:pageopacity="0.0"
     borderopacity="1.0"
     bordercolor="#666666"
     pagecolor="#ffffff"
     id="base" />
  <metadata
     id="metadata5">
    <rdf:RDF>
      <cc:Work
         rdf:about="">
        <dc:format>image/svg+xml</dc:format>
        <dc:type
           rdf:resource="http://purl.org/dc/dcmitype/StillImage" />
        <dc:title></dc:title>
      </cc:Work>
    </rdf:RDF>
  </metadata>
  <g
     id="layer1"
     inkscape:groupmode="layer"
     inkscape:label="Calque 1">
    <g
       id="g983">
      <g
         id="g998">
        <path
           inkscape:export-ydpi="36.905811"
           inkscape:export-xdpi="36.905811"
           id="path833-5-6"
           style="fill:none;fill-opacity:1;stroke:#f4511e;stroke-width:2.44097;stroke-linejoin:bevel;stroke-miterlimit:4;stroke-dasharray:none;stroke-opacity:1"
           d="m 20.786356,11.006222 c 0.09474,4.591013 -3.516235,8.90156 -8.047598,9.635379 C 8.4699914,21.454898 3.8314694,19.052468 2.0924774,15.05535 0.28976745,11.178006 1.3978874,6.1850373 4.7349924,3.4880436 8.0267244,0.69073464 13.211539,0.45628334 16.694127,3.0436077 c 2.525106,1.8008012 4.123796,4.8530642 4.092229,7.9626143 z" />
        <path
           inkscape:export-ydpi="36.905811"
           inkscape:export-xdpi="36.905811"
           id="path924-9-0"
           style="fill:#f4511e;fill-opacity:1;stroke:none;stroke-width:0.264583px;stroke-linecap:butt;stroke-linejoin:miter;stroke-opacity:1"
           d="M 5.7531344,4.0152624 C 5.2297314,8.3361199 4.7063284,12.656978 4.1829254,16.977835 3.0581664,15.028995 1.9334074,13.080154 0.80864845,11.131313 1.4322774,9.483152 2.0559054,7.8349896 2.6795344,6.1868275 c 1.024533,-0.723855 2.049067,-1.4477101 3.0736,-2.1715651 z" />
        <path
           inkscape:export-ydpi="36.905811"
           inkscape:export-xdpi="36.905811"
           id="path926-7-2"
           style="fill:#f4511e;fill-opacity:1;stroke:none;stroke-width:0.264583px;stroke-linecap:butt;stroke-linejoin:miter;stroke-opacity:1"
           d="m 16.276872,3.7145844 c 0.523403,4.3876746 1.046806,8.7753496 1.570209,13.1630246 1.202713,-2.060203 2.405425,-4.120405 3.608138,-6.180608 C 19.729103,8.3695283 18.002988,6.0420565 16.276872,3.7145844 Z" />
        <path
           inkscape:export-ydpi="36.905811"
           inkscape:export-xdpi="36.905811"
           id="path928-3-1"
           style="fill:#f4511e;fill-opacity:1;stroke:none;stroke-width:0.264583px;stroke-linecap:butt;stroke-linejoin:miter;stroke-opacity:1"
           d="m 8.9603684,1.9105149 c 0.67931,3.2295069 1.3586206,6.4590137 2.0379306,9.6885211 0.67931,-3.2295074 1.35862,-6.4590142 2.03793,-9.6885211 -1.35862,0 -2.71724,0 -4.0758606,0 z" />
        <path
           inkscape:export-ydpi="36.905811"
           inkscape:export-xdpi="36.905811"
           id="path930-0-4"
           style="fill:#f4511e;fill-opacity:1;stroke:none;stroke-width:0.264583px;stroke-linecap:butt;stroke-linejoin:miter;stroke-opacity:1"
           d="m 7.1897074,18.88213 c 0.256133,-2.082475 0.512267,-4.16495 0.7684,-6.247425 0.579084,2.71724 1.158168,5.434481 1.737252,8.151721 -0.835217,-0.634765 -1.670435,-1.269531 -2.505652,-1.904296 z" />
        <path
           inkscape:export-ydpi="36.905811"
           inkscape:export-xdpi="36.905811"
           id="path930-3-4-9"
           style="fill:#f4511e;fill-opacity:1;stroke:none;stroke-width:0.264583px;stroke-linecap:butt;stroke-linejoin:miter;stroke-opacity:1"
           d="m 14.695492,18.881645 c -0.256133,-2.082475 -0.512267,-4.16495 -0.7684,-6.247425 -0.579084,2.71724 -1.158168,5.434481 -1.737252,8.151721 0.835217,-0.634765 1.670435,-1.269531 2.505652,-1.904296 z" />
      </g>
    </g>
  </g>
</svg>
